<svg width="16" height="15" viewBox="0 0 16 15" fill="none" xmlns="http://www.w3.org/2000/svg">
<path fill-rule="evenodd" clip-rule="evenodd" d="M9.6066 4.51086L9.60659 4.51077C9.58194 4.21135 9.55786 3.91894 9.51153 3.62993C9.44553 3.21474 9.16763 2.96563 8.76467 2.85491C8.10118 2.66808 7.31263 2.93449 6.9861 3.47424C6.89926 3.61955 6.84368 3.78909 6.79852 3.95171C6.73251 4.1766 6.58314 4.32192 6.29829 4.27348C5.95722 4.2145 5.61131 4.17644 5.26606 4.13844C5.10495 4.12071 4.94399 4.103 4.78373 4.08318C4.40856 4.0382 4.32866 3.93095 4.40856 3.55382C4.65173 2.45702 5.29437 1.69584 6.32956 1.24605C7.28484 0.830862 8.28182 0.747824 9.30311 0.855081C9.97702 0.924279 10.6058 1.11803 11.1581 1.51939C11.6757 1.89652 12.0404 2.3809 12.1447 3.02791C12.1968 3.3566 12.2419 3.68875 12.2454 4.0209C12.2558 5.24918 12.2593 6.47745 12.2454 7.70572C12.2384 8.35964 12.3982 8.94783 12.8325 9.44605C12.8846 9.50833 12.9332 9.57407 12.9784 9.63981C13.1069 9.83011 13.0895 9.97196 12.9158 10.1207L12.7598 10.2557C12.363 10.5989 11.9638 10.9442 11.5645 11.2867C11.3457 11.4736 11.1338 11.4839 10.9358 11.2763C10.7111 11.0416 10.4972 10.794 10.2839 10.547C10.2268 10.4809 10.1697 10.4149 10.1125 10.3491C10.0768 10.3088 10.046 10.2637 10.0134 10.2159L10.0134 10.2158C9.99839 10.1938 9.98301 10.1713 9.9666 10.1484C9.8878 10.2222 9.81187 10.2938 9.73717 10.3643L9.73678 10.3647C9.64695 10.4494 9.55892 10.5325 9.46985 10.6155C8.86888 11.1622 8.16023 11.4459 7.35085 11.4874C6.73251 11.5185 6.12113 11.5116 5.55143 11.2314C4.72815 10.8266 4.25224 10.1692 4.11676 9.26614C3.98476 8.37694 4.07508 7.52926 4.5892 6.76462C5.05468 6.06918 5.73207 5.66091 6.51714 5.40141C7.35779 5.12462 8.22971 5.02774 9.10857 4.95508C9.26489 4.93432 9.42469 4.91702 9.64006 4.89626C9.62764 4.76635 9.61707 4.63797 9.6066 4.51086ZM9.60532 6.40133L9.48436 6.40431C8.99275 6.4161 8.51896 6.42746 8.06297 6.57778C7.73991 6.68504 7.44464 6.83728 7.21884 7.10023C6.7742 7.6123 6.7082 8.21778 6.88536 8.83711C7.10421 9.59829 7.86496 9.87508 8.55972 9.48411C8.94183 9.2696 9.1711 8.93399 9.34827 8.54994C9.62528 7.95264 9.61686 7.32346 9.6082 6.67636V6.67634C9.60698 6.58502 9.60575 6.49333 9.60532 6.40133ZM8.05186 14.8749C5.33386 14.8431 2.99216 13.9313 0.992019 12.1425C0.984711 12.136 0.976491 12.1297 0.968319 12.1235C0.947361 12.1075 0.926714 12.0917 0.922549 12.073L0.916979 12.0514C0.902599 11.9964 0.885136 11.9296 0.908077 11.8964C0.934128 11.8617 1.03254 11.8443 1.07596 11.8646C1.19516 11.925 1.31188 11.9903 1.42877 12.0557L1.42882 12.0558C1.53048 12.1127 1.63226 12.1697 1.73592 12.2235C3.04426 12.9153 4.43076 13.3842 5.89251 13.6158C7.72767 13.9081 9.55124 13.8618 11.3603 13.4219C12.11 13.2395 12.8453 13.0108 13.5515 12.7011C13.5949 12.6809 13.6413 12.6635 13.6876 12.6548C13.8005 12.6316 13.8873 12.678 13.9365 12.7793C13.9886 12.8806 13.9568 12.9703 13.8641 13.0311C13.7717 13.0907 13.6801 13.1521 13.5883 13.2135L13.5882 13.2136L13.5882 13.2136C13.3637 13.3638 13.1385 13.5145 12.9002 13.6418C11.3806 14.461 9.74518 14.846 8.05186 14.8749ZM13.138 12.1174C13.3173 12.0891 13.4848 12.0626 13.6497 12.0626C13.9215 12.0626 14.1221 12.094 14.3025 12.1223L14.3212 12.1252C14.5412 12.1599 14.6251 12.2526 14.5962 12.4726C14.5644 12.7186 14.5094 12.9646 14.437 13.202C14.3855 13.3686 14.3217 13.5301 14.2579 13.6919C14.2141 13.8028 14.1702 13.9139 14.1302 14.0269C14.1183 14.0607 14.1268 14.1013 14.1352 14.1413C14.139 14.1595 14.1428 14.1776 14.1447 14.1948C14.1631 14.1921 14.1816 14.1896 14.2 14.1871C14.2392 14.1819 14.278 14.1767 14.3154 14.1688C14.3303 14.1663 14.3431 14.1532 14.3556 14.1403C14.3576 14.1382 14.3597 14.1361 14.3617 14.134C14.9985 13.5204 15.2793 12.7591 15.2851 11.8879C15.288 11.7605 15.2214 11.6679 15.0941 11.6302C15.0101 11.6042 14.9262 11.5839 14.8423 11.5637L14.8422 11.5637C14.4428 11.471 14.0462 11.4971 13.6497 11.5666C13.2908 11.6302 12.9434 11.7287 12.6511 11.9573C12.6173 11.9831 12.5986 12.0293 12.5798 12.0754C12.5712 12.0965 12.5627 12.1177 12.5526 12.1368C12.5726 12.1406 12.5928 12.1462 12.6132 12.1519C12.6549 12.1636 12.697 12.1754 12.7379 12.1715C12.8792 12.1583 13.0115 12.1374 13.138 12.1174Z" fill="#757F99"/>
</svg>
